<svg xmlns="http://www.w3.org/2000/svg" xmlns:xlink="http://www.w3.org/1999/xlink" width="300" zoomAndPan="magnify" viewBox="0 0 224.87999 225" height="300" preserveAspectRatio="xMidYMid meet" version="1.0"><defs><g/><clipPath id="8449125d02"><path d="M 5 0.0585938 L 197 0.0585938 L 197 224.9375 L 5 224.9375 Z M 5 0.0585938 " clip-rule="nonzero"/></clipPath><clipPath id="b349f2ba50"><path d="M 0.996094 0.0585938 L 191.933594 0.0585938 L 191.933594 224.9375 L 0.996094 224.9375 Z M 0.996094 0.0585938 " clip-rule="nonzero"/></clipPath><clipPath id="4d2d33f12b"><path d="M 0.996094 0.0585938 L 87 0.0585938 L 87 224.9375 L 0.996094 224.9375 Z M 0.996094 0.0585938 " clip-rule="nonzero"/></clipPath><clipPath id="74851ea2ec"><rect x="0" width="87" y="0" height="225"/></clipPath><clipPath id="6fdf245e2b"><rect x="0" width="192" y="0" height="225"/></clipPath></defs><g clip-path="url(#8449125d02)"><g transform="matrix(1, 0, 0, 1, 5, -0.000000000000031655)"><g clip-path="url(#6fdf245e2b)"><path stroke-linecap="round" transform="matrix(0, 0.167205, -0.167205, 0, 187.235709, 113.089078)" fill="none" stroke-linejoin="miter" d="M 83.500397 83.503798 L 565.131559 83.503798 " stroke="#ffffff" stroke-width="167" stroke-opacity="1" stroke-miterlimit="4"/><path stroke-linecap="round" transform="matrix(-0.167205, 0, 0, -0.167205, 185.616602, 139.948978)" fill="none" stroke-linejoin="miter" d="M 83.492318 83.494378 L 570.94062 83.494378 " stroke="#ffffff" stroke-width="167" stroke-opacity="1" stroke-miterlimit="4"/><g clip-path="url(#b349f2ba50)"><path stroke-linecap="round" transform="matrix(-0.118232, 0.118232, -0.118232, -0.118232, 191.880857, 127.204784)" fill="none" stroke-linejoin="miter" d="M 83.490457 83.504486 L 743.375797 83.504486 " stroke="#ffffff" stroke-width="167" stroke-opacity="1" stroke-miterlimit="4"/></g><g clip-path="url(#4d2d33f12b)"><g transform="matrix(1, 0, 0, 1, 0.000000000000000888, -0.000000000000031655)"><g clip-path="url(#74851ea2ec)"><g fill="#ffffff" fill-opacity="1"><g transform="translate(1.236237, 221.436522)"><g><path d="M 42.375 0 C 38.289062 0 34.851562 -1.390625 32.0625 -4.171875 C 29.28125 -6.960938 27.890625 -10.40625 27.890625 -14.5 L 27.890625 -203.265625 C 27.890625 -207.535156 29.28125 -211.019531 32.0625 -213.71875 C 34.851562 -216.414062 38.289062 -217.765625 42.375 -217.765625 C 46.65625 -217.765625 50.140625 -216.414062 52.828125 -213.71875 C 55.523438 -211.019531 56.875 -207.535156 56.875 -203.265625 L 56.875 -14.5 C 56.875 -10.40625 55.523438 -6.960938 52.828125 -4.171875 C 50.140625 -1.390625 46.65625 0 42.375 0 Z M 42.375 0 "/></g></g></g></g></g></g><path stroke-linecap="round" transform="matrix(-0.167205, 0, 0, -0.167205, 185.616602, 32.46216)" fill="none" stroke-linejoin="miter" d="M 83.492318 83.503131 L 570.94062 83.503131 " stroke="#ffffff" stroke-width="167" stroke-opacity="1" stroke-miterlimit="4"/><path stroke-linecap="round" transform="matrix(0, 0.167205, -0.167205, 0, 187.23486, 4.633526)" fill="none" stroke-linejoin="miter" d="M 83.491549 83.49872 L 299.426592 83.49872 " stroke="#ffffff" stroke-width="167" stroke-opacity="1" stroke-miterlimit="4"/></g></g></g></svg>