<svg xmlns="http://www.w3.org/2000/svg" xmlns:xlink="http://www.w3.org/1999/xlink" width="1200" zoomAndPan="magnify" viewBox="0 0 900 225" height="300" preserveAspectRatio="xMidYMid meet" version="1.0"><defs><g/><clipPath id="2cc7a0a392"><path d="M 18 1 L 867.359375 1 L 867.359375 157.039062 L 18 157.039062 Z M 18 1 " clip-rule="nonzero"/></clipPath><clipPath id="6d51bda238"><path d="M 0.238281 121 L 1 121 L 1 122 L 0.238281 122 Z M 0.238281 121 " clip-rule="nonzero"/></clipPath><clipPath id="fd6a8b1b09"><rect x="0" width="850" y="0" height="157"/></clipPath><clipPath id="5a3c4ddf0b"><path d="M 0 0.800781 L 164 0.800781 L 164 157.039062 L 0 157.039062 Z M 0 0.800781 " clip-rule="nonzero"/></clipPath><clipPath id="e61714c2e7"><rect x="0" width="868" y="0" height="158"/></clipPath></defs><g transform="matrix(1, 0, 0, 1, 12, 34)"><g clip-path="url(#e61714c2e7)"><g clip-path="url(#2cc7a0a392)"><g transform="matrix(1, 0, 0, 1, 18, 1)"><g clip-path="url(#fd6a8b1b09)"><g clip-path="url(#6d51bda238)"><g fill="#ffffff" fill-opacity="1"><g transform="translate(0.304468, 121.978684)"><g/></g></g></g><g fill="#ffffff" fill-opacity="1"><g transform="translate(40.88146, 121.978684)"><g/></g></g><g fill="#ffffff" fill-opacity="1"><g transform="translate(81.461098, 121.978684)"><g><path d="M 20.90625 0 C 18.875 0 17.1875 -0.664062 15.84375 -2 C 14.507812 -3.34375 13.84375 -5.03125 13.84375 -7.0625 L 13.84375 -68.6875 C 13.84375 -70.8125 14.507812 -72.519531 15.84375 -73.8125 C 17.1875 -75.101562 18.875 -75.75 20.90625 -75.75 C 23.03125 -75.75 24.738281 -75.101562 26.03125 -73.8125 C 27.320312 -72.519531 27.96875 -70.8125 27.96875 -68.6875 L 27.96875 -7.0625 C 27.96875 -5.03125 27.320312 -3.34375 26.03125 -2 C 24.738281 -0.664062 23.03125 0 20.90625 0 Z M 20.90625 -88.078125 C 18.414062 -88.078125 16.269531 -88.976562 14.46875 -90.78125 C 12.664062 -92.582031 11.765625 -94.726562 11.765625 -97.21875 C 11.765625 -99.707031 12.664062 -101.851562 14.46875 -103.65625 C 16.269531 -105.457031 18.414062 -106.359375 20.90625 -106.359375 C 23.394531 -106.359375 25.539062 -105.457031 27.34375 -103.65625 C 29.144531 -101.851562 30.046875 -99.707031 30.046875 -97.21875 C 30.046875 -94.726562 29.144531 -92.582031 27.34375 -90.78125 C 25.539062 -88.976562 23.394531 -88.078125 20.90625 -88.078125 Z M 20.90625 -88.078125 "/></g></g></g><g fill="#ffffff" fill-opacity="1"><g transform="translate(123.284481, 121.978684)"><g><path d="M 62.734375 -13.015625 C 67.078125 -13.015625 69.25 -10.847656 69.25 -6.515625 C 69.25 -2.171875 67.078125 0 62.734375 0 L 15.515625 0 C 11.171875 0 9 -2.171875 9 -6.515625 C 9 -8.359375 9.414062 -9.832031 10.25 -10.9375 L 49.4375 -62.734375 L 14.125 -62.734375 C 9.78125 -62.734375 7.609375 -64.90625 7.609375 -69.25 C 7.609375 -73.582031 9.78125 -75.75 14.125 -75.75 L 61.34375 -75.75 C 65.6875 -75.75 67.859375 -73.582031 67.859375 -69.25 C 67.859375 -67.394531 67.441406 -65.914062 66.609375 -64.8125 L 27.5625 -13.015625 Z M 62.734375 -13.015625 "/></g></g></g><g fill="#ffffff" fill-opacity="1"><g transform="translate(195.298245, 121.978684)"><g><path d="M 46.8125 -76.3125 C 53.914062 -76.3125 60.351562 -74.625 66.125 -71.25 C 71.894531 -67.882812 76.460938 -63.269531 79.828125 -57.40625 C 83.203125 -51.539062 84.890625 -45.007812 84.890625 -37.8125 L 84.890625 -6.921875 C 84.890625 -4.890625 84.21875 -3.203125 82.875 -1.859375 C 81.539062 -0.523438 79.859375 0.140625 77.828125 0.140625 C 75.796875 0.140625 74.109375 -0.523438 72.765625 -1.859375 C 71.429688 -3.203125 70.765625 -4.890625 70.765625 -6.921875 L 70.765625 -12.046875 C 67.535156 -8.078125 63.609375 -4.984375 58.984375 -2.765625 C 54.367188 -0.554688 49.382812 0.546875 44.03125 0.546875 C 37.382812 0.546875 31.359375 -1.113281 25.953125 -4.4375 C 20.554688 -7.757812 16.3125 -12.347656 13.21875 -18.203125 C 10.132812 -24.066406 8.59375 -30.601562 8.59375 -37.8125 C 8.59375 -45.007812 10.253906 -51.539062 13.578125 -57.40625 C 16.898438 -63.269531 21.488281 -67.882812 27.34375 -71.25 C 33.207031 -74.625 39.695312 -76.3125 46.8125 -76.3125 Z M 46.8125 -11.90625 C 51.425781 -11.90625 55.601562 -13.035156 59.34375 -15.296875 C 63.082031 -17.566406 66.007812 -20.660156 68.125 -24.578125 C 70.25 -28.503906 71.3125 -32.914062 71.3125 -37.8125 C 71.3125 -42.695312 70.25 -47.125 68.125 -51.09375 C 66.007812 -55.070312 63.082031 -58.191406 59.34375 -60.453125 C 55.601562 -62.710938 51.425781 -63.84375 46.8125 -63.84375 C 42.195312 -63.84375 38.019531 -62.710938 34.28125 -60.453125 C 30.539062 -58.191406 27.582031 -55.070312 25.40625 -51.09375 C 23.238281 -47.125 22.15625 -42.695312 22.15625 -37.8125 C 22.15625 -32.914062 23.238281 -28.503906 25.40625 -24.578125 C 27.582031 -20.660156 30.539062 -17.566406 34.28125 -15.296875 C 38.019531 -13.035156 42.195312 -11.90625 46.8125 -11.90625 Z M 46.8125 -11.90625 "/></g></g></g><g fill="#ffffff" fill-opacity="1"><g transform="translate(288.777666, 121.978684)"><g><path d="M 50.125 -76.4375 C 56.5 -76.4375 62.222656 -75.050781 67.296875 -72.28125 C 72.378906 -69.519531 76.347656 -65.484375 79.203125 -60.171875 C 82.066406 -54.859375 83.5 -48.460938 83.5 -40.984375 L 83.5 -6.921875 C 83.5 -4.890625 82.828125 -3.203125 81.484375 -1.859375 C 80.148438 -0.523438 78.46875 0.140625 76.4375 0.140625 C 74.40625 0.140625 72.71875 -0.523438 71.375 -1.859375 C 70.039062 -3.203125 69.375 -4.890625 69.375 -6.921875 L 69.375 -40.984375 C 69.375 -48.460938 67.363281 -54.117188 63.34375 -57.953125 C 59.332031 -61.785156 54.003906 -63.703125 47.359375 -63.703125 C 43.484375 -63.703125 39.953125 -62.914062 36.765625 -61.34375 C 33.578125 -59.78125 31.082031 -57.660156 29.28125 -54.984375 C 27.488281 -52.304688 26.59375 -49.304688 26.59375 -45.984375 L 26.59375 -6.921875 C 26.59375 -4.890625 25.945312 -3.203125 24.65625 -1.859375 C 23.363281 -0.523438 21.65625 0.140625 19.53125 0.140625 C 17.5 0.140625 15.8125 -0.523438 14.46875 -1.859375 C 13.132812 -3.203125 12.46875 -4.890625 12.46875 -6.921875 L 12.46875 -68.6875 C 12.46875 -70.8125 13.132812 -72.519531 14.46875 -73.8125 C 15.8125 -75.101562 17.5 -75.75 19.53125 -75.75 C 21.65625 -75.75 23.363281 -75.101562 24.65625 -73.8125 C 25.945312 -72.519531 26.59375 -70.8125 26.59375 -68.6875 L 26.59375 -67.171875 C 29.539062 -70.117188 33.046875 -72.398438 37.109375 -74.015625 C 41.171875 -75.628906 45.507812 -76.4375 50.125 -76.4375 Z M 50.125 -76.4375 "/></g></g></g><g fill="#ffffff" fill-opacity="1"><g transform="translate(383.226468, 121.978684)"><g><path d="M 46.8125 0.546875 C 39.425781 0.546875 32.820312 -1.085938 27 -4.359375 C 21.1875 -7.640625 16.664062 -12.1875 13.4375 -18 C 10.207031 -23.820312 8.59375 -30.425781 8.59375 -37.8125 C 8.59375 -45.289062 10.207031 -51.9375 13.4375 -57.75 C 16.664062 -63.5625 21.1875 -68.109375 27 -71.390625 C 32.820312 -74.671875 39.425781 -76.3125 46.8125 -76.3125 C 54.101562 -76.3125 60.632812 -74.671875 66.40625 -71.390625 C 72.175781 -68.109375 76.695312 -63.5625 79.96875 -57.75 C 83.25 -51.9375 84.890625 -45.289062 84.890625 -37.8125 C 84.890625 -30.425781 83.273438 -23.820312 80.046875 -18 C 76.816406 -12.1875 72.316406 -7.640625 66.546875 -4.359375 C 60.773438 -1.085938 54.195312 0.546875 46.8125 0.546875 Z M 46.8125 -11.90625 C 51.519531 -11.90625 55.742188 -13.015625 59.484375 -15.234375 C 63.222656 -17.453125 66.128906 -20.519531 68.203125 -24.4375 C 70.273438 -28.363281 71.3125 -32.820312 71.3125 -37.8125 C 71.3125 -42.789062 70.273438 -47.265625 68.203125 -51.234375 C 66.128906 -55.203125 63.222656 -58.296875 59.484375 -60.515625 C 55.742188 -62.734375 51.519531 -63.84375 46.8125 -63.84375 C 42.101562 -63.84375 37.878906 -62.734375 34.140625 -60.515625 C 30.398438 -58.296875 27.46875 -55.203125 25.34375 -51.234375 C 23.21875 -47.265625 22.15625 -42.789062 22.15625 -37.8125 C 22.15625 -32.820312 23.21875 -28.363281 25.34375 -24.4375 C 27.46875 -20.519531 30.398438 -17.453125 34.140625 -15.234375 C 37.878906 -13.015625 42.101562 -11.90625 46.8125 -11.90625 Z M 46.8125 -11.90625 "/></g></g></g><g fill="#ffffff" fill-opacity="1"><g transform="translate(476.705901, 121.978684)"><g><path d="M 30.46875 0 C 26.5 0 22.921875 -1.082031 19.734375 -3.25 C 16.546875 -5.425781 14.070312 -8.472656 12.3125 -12.390625 C 10.5625 -16.316406 9.6875 -20.726562 9.6875 -25.625 L 9.6875 -101.234375 C 9.6875 -103.265625 10.332031 -104.925781 11.625 -106.21875 C 12.925781 -107.507812 14.59375 -108.15625 16.625 -108.15625 C 18.65625 -108.15625 20.316406 -107.507812 21.609375 -106.21875 C 22.898438 -104.925781 23.546875 -103.265625 23.546875 -101.234375 L 23.546875 -25.625 C 23.546875 -22.207031 24.191406 -19.390625 25.484375 -17.171875 C 26.773438 -14.953125 28.4375 -13.84375 30.46875 -13.84375 L 33.921875 -13.84375 C 35.773438 -13.84375 37.273438 -13.195312 38.421875 -11.90625 C 39.578125 -10.613281 40.15625 -8.953125 40.15625 -6.921875 C 40.15625 -4.890625 39.273438 -3.226562 37.515625 -1.9375 C 35.765625 -0.644531 33.507812 0 30.75 0 Z M 30.46875 0 "/></g></g></g><g fill="#ffffff" fill-opacity="1"><g transform="translate(518.252307, 121.978684)"><g><path d="M 70.34375 -75.0625 C 73.207031 -73.945312 74.640625 -72.144531 74.640625 -69.65625 C 74.640625 -68.726562 74.363281 -67.617188 73.8125 -66.328125 L 31.4375 28.9375 C 30.332031 31.800781 28.53125 33.234375 26.03125 33.234375 C 25.113281 33.234375 24.007812 32.957031 22.71875 32.40625 C 19.945312 31.207031 18.5625 29.40625 18.5625 27 C 18.5625 25.894531 18.835938 24.789062 19.390625 23.6875 L 33.234375 -7.484375 L 2.078125 -66.609375 C 1.617188 -67.441406 1.390625 -68.410156 1.390625 -69.515625 C 1.390625 -70.710938 1.753906 -71.816406 2.484375 -72.828125 C 3.222656 -73.847656 4.195312 -74.640625 5.40625 -75.203125 C 6.226562 -75.566406 7.148438 -75.75 8.171875 -75.75 C 10.753906 -75.75 12.691406 -74.457031 13.984375 -71.875 L 39.328125 -21.46875 L 61.625 -71.734375 C 62.820312 -74.410156 64.625 -75.75 67.03125 -75.75 C 68.226562 -75.75 69.332031 -75.519531 70.34375 -75.0625 Z M 70.34375 -75.0625 "/></g></g></g><g fill="#ffffff" fill-opacity="1"><g transform="translate(592.897318, 121.978684)"><g><path d="M 44.734375 -13.84375 C 46.390625 -13.84375 47.796875 -13.195312 48.953125 -11.90625 C 50.109375 -10.613281 50.6875 -8.953125 50.6875 -6.921875 C 50.6875 -4.890625 49.921875 -3.226562 48.390625 -1.9375 C 46.867188 -0.644531 44.910156 0 42.515625 0 L 40.015625 0 C 35.492188 0 31.363281 -1.175781 27.625 -3.53125 C 23.882812 -5.882812 20.953125 -9.09375 18.828125 -13.15625 C 16.710938 -17.21875 15.65625 -21.785156 15.65625 -26.859375 L 15.65625 -61.078125 L 9.28125 -61.078125 C 7.34375 -61.078125 5.769531 -61.628906 4.5625 -62.734375 C 3.363281 -63.835938 2.765625 -65.222656 2.765625 -66.890625 C 2.765625 -68.734375 3.363281 -70.207031 4.5625 -71.3125 C 5.769531 -72.425781 7.34375 -72.984375 9.28125 -72.984375 L 15.65625 -72.984375 L 15.65625 -92.921875 C 15.65625 -94.953125 16.300781 -96.613281 17.59375 -97.90625 C 18.882812 -99.195312 20.546875 -99.84375 22.578125 -99.84375 C 24.609375 -99.84375 26.269531 -99.195312 27.5625 -97.90625 C 28.851562 -96.613281 29.5 -94.953125 29.5 -92.921875 L 29.5 -72.984375 L 41.265625 -72.984375 C 43.203125 -72.984375 44.769531 -72.425781 45.96875 -71.3125 C 47.175781 -70.207031 47.78125 -68.734375 47.78125 -66.890625 C 47.78125 -65.222656 47.175781 -63.835938 45.96875 -62.734375 C 44.769531 -61.628906 43.203125 -61.078125 41.265625 -61.078125 L 29.5 -61.078125 L 29.5 -26.859375 C 29.5 -23.171875 30.515625 -20.078125 32.546875 -17.578125 C 34.578125 -15.085938 37.066406 -13.84375 40.015625 -13.84375 Z M 44.734375 -13.84375 "/></g></g></g><g fill="#ffffff" fill-opacity="1"><g transform="translate(648.430995, 121.978684)"><g><path d="M 20.90625 0 C 18.875 0 17.1875 -0.664062 15.84375 -2 C 14.507812 -3.34375 13.84375 -5.03125 13.84375 -7.0625 L 13.84375 -68.6875 C 13.84375 -70.8125 14.507812 -72.519531 15.84375 -73.8125 C 17.1875 -75.101562 18.875 -75.75 20.90625 -75.75 C 23.03125 -75.75 24.738281 -75.101562 26.03125 -73.8125 C 27.320312 -72.519531 27.96875 -70.8125 27.96875 -68.6875 L 27.96875 -7.0625 C 27.96875 -5.03125 27.320312 -3.34375 26.03125 -2 C 24.738281 -0.664062 23.03125 0 20.90625 0 Z M 20.90625 -88.078125 C 18.414062 -88.078125 16.269531 -88.976562 14.46875 -90.78125 C 12.664062 -92.582031 11.765625 -94.726562 11.765625 -97.21875 C 11.765625 -99.707031 12.664062 -101.851562 14.46875 -103.65625 C 16.269531 -105.457031 18.414062 -106.359375 20.90625 -106.359375 C 23.394531 -106.359375 25.539062 -105.457031 27.34375 -103.65625 C 29.144531 -101.851562 30.046875 -99.707031 30.046875 -97.21875 C 30.046875 -94.726562 29.144531 -92.582031 27.34375 -90.78125 C 25.539062 -88.976562 23.394531 -88.078125 20.90625 -88.078125 Z M 20.90625 -88.078125 "/></g></g></g><g fill="#ffffff" fill-opacity="1"><g transform="translate(690.2544, 121.978684)"><g><path d="M 46.8125 0.546875 C 39.519531 0.546875 32.960938 -1.113281 27.140625 -4.4375 C 21.328125 -7.757812 16.78125 -12.347656 13.5 -18.203125 C 10.226562 -24.066406 8.59375 -30.601562 8.59375 -37.8125 C 8.59375 -45.195312 10.179688 -51.816406 13.359375 -57.671875 C 16.546875 -63.535156 21 -68.109375 26.71875 -71.390625 C 32.445312 -74.671875 38.910156 -76.3125 46.109375 -76.3125 C 57.003906 -76.3125 66.054688 -72.15625 73.265625 -63.84375 C 74.179688 -62.820312 74.640625 -61.617188 74.640625 -60.234375 C 74.640625 -58.203125 73.625 -56.492188 71.59375 -55.109375 C 70.675781 -54.460938 69.613281 -54.140625 68.40625 -54.140625 C 66.28125 -54.140625 64.484375 -54.972656 63.015625 -56.640625 C 60.703125 -59.128906 58.179688 -60.953125 55.453125 -62.109375 C 52.734375 -63.265625 49.617188 -63.84375 46.109375 -63.84375 C 39.003906 -63.84375 33.234375 -61.460938 28.796875 -56.703125 C 24.367188 -51.953125 22.15625 -45.65625 22.15625 -37.8125 C 22.15625 -32.820312 23.191406 -28.363281 25.265625 -24.4375 C 27.347656 -20.519531 30.257812 -17.453125 34 -15.234375 C 37.738281 -13.015625 42.007812 -11.90625 46.8125 -11.90625 C 53.082031 -11.90625 58.160156 -13.519531 62.046875 -16.75 C 63.796875 -18.050781 65.503906 -18.703125 67.171875 -18.703125 C 68.460938 -18.703125 69.660156 -18.285156 70.765625 -17.453125 C 72.515625 -15.972656 73.390625 -14.3125 73.390625 -12.46875 C 73.390625 -11.082031 72.835938 -9.832031 71.734375 -8.71875 C 65.085938 -2.539062 56.78125 0.546875 46.8125 0.546875 Z M 46.8125 0.546875 "/></g></g></g><g fill="#ffffff" fill-opacity="1"><g transform="translate(773.48571, 121.978684)"><g><path d="M 40.015625 0.546875 C 33.742188 0.546875 27.835938 -0.421875 22.296875 -2.359375 C 16.753906 -4.296875 12.414062 -6.832031 9.28125 -9.96875 C 8.082031 -11.164062 7.484375 -12.597656 7.484375 -14.265625 C 7.484375 -16.484375 8.40625 -18.285156 10.25 -19.671875 C 12 -20.960938 13.613281 -21.609375 15.09375 -21.609375 C 16.9375 -21.609375 18.691406 -20.773438 20.359375 -19.109375 C 22.109375 -17.171875 24.738281 -15.484375 28.25 -14.046875 C 31.757812 -12.617188 35.5 -11.90625 39.46875 -11.90625 C 44.726562 -11.90625 48.8125 -12.78125 51.71875 -14.53125 C 54.632812 -16.289062 56.09375 -18.648438 56.09375 -21.609375 C 56.09375 -24.460938 54.660156 -26.835938 51.796875 -28.734375 C 48.929688 -30.628906 44.082031 -32.222656 37.25 -33.515625 C 19.519531 -36.929688 10.65625 -44.222656 10.65625 -55.390625 C 10.65625 -59.910156 11.992188 -63.738281 14.671875 -66.875 C 17.359375 -70.019531 20.867188 -72.378906 25.203125 -73.953125 C 29.546875 -75.523438 34.160156 -76.3125 39.046875 -76.3125 C 45.046875 -76.3125 50.421875 -75.335938 55.171875 -73.390625 C 59.929688 -71.453125 63.695312 -68.773438 66.46875 -65.359375 C 67.664062 -63.890625 68.265625 -62.414062 68.265625 -60.9375 C 68.265625 -59.363281 67.484375 -57.929688 65.921875 -56.640625 C 64.898438 -55.898438 63.609375 -55.53125 62.046875 -55.53125 C 59.640625 -55.53125 57.46875 -56.40625 55.53125 -58.15625 C 53.21875 -60.28125 50.769531 -61.78125 48.1875 -62.65625 C 45.601562 -63.539062 42.46875 -63.984375 38.78125 -63.984375 C 34.53125 -63.984375 31.039062 -63.265625 28.3125 -61.828125 C 25.59375 -60.398438 24.234375 -58.394531 24.234375 -55.8125 C 24.234375 -53.96875 24.691406 -52.421875 25.609375 -51.171875 C 26.535156 -49.921875 28.289062 -48.765625 30.875 -47.703125 C 33.46875 -46.640625 37.207031 -45.601562 42.09375 -44.59375 C 52.15625 -42.5625 59.285156 -39.742188 63.484375 -36.140625 C 67.691406 -32.546875 69.796875 -27.882812 69.796875 -22.15625 C 69.796875 -17.90625 68.640625 -14.050781 66.328125 -10.59375 C 64.023438 -7.132812 60.632812 -4.410156 56.15625 -2.421875 C 51.675781 -0.441406 46.296875 0.546875 40.015625 0.546875 Z M 40.015625 0.546875 "/></g></g></g></g></g></g><path stroke-linecap="round" transform="matrix(0, 0.533854, -0.533854, 0, 92.392292, 69.266934)" fill="none" stroke-linejoin="miter" d="M 12.999979 12.998237 L 87.904819 12.998237 " stroke="#ffffff" stroke-width="26" stroke-opacity="1" stroke-miterlimit="4"/><path stroke-linecap="round" transform="matrix(-0.533854, 0, 0, -0.533854, 91.583067, 82.610269)" fill="none" stroke-linejoin="miter" d="M 12.997055 12.99679 L 88.801894 12.99679 " stroke="#ffffff" stroke-width="26" stroke-opacity="1" stroke-miterlimit="4"/><g clip-path="url(#5a3c4ddf0b)"><path stroke-linecap="round" transform="matrix(-0.377492, 0.377492, -0.377492, -0.377492, 94.699448, 76.27942)" fill="none" stroke-linejoin="miter" d="M 13.004863 13.000014 L 115.624979 13.000014 " stroke="#ffffff" stroke-width="26" stroke-opacity="1" stroke-miterlimit="4"/></g><g fill="#ffffff" fill-opacity="1"><g transform="translate(0.00919872, 123.076849)"><g><path d="M 21.046875 0 C 19.015625 0 17.304688 -0.691406 15.921875 -2.078125 C 14.535156 -3.460938 13.84375 -5.171875 13.84375 -7.203125 L 13.84375 -100.953125 C 13.84375 -103.078125 14.535156 -104.804688 15.921875 -106.140625 C 17.304688 -107.484375 19.015625 -108.15625 21.046875 -108.15625 C 23.171875 -108.15625 24.898438 -107.484375 26.234375 -106.140625 C 27.578125 -104.804688 28.25 -103.078125 28.25 -100.953125 L 28.25 -7.203125 C 28.25 -5.171875 27.578125 -3.460938 26.234375 -2.078125 C 24.898438 -0.691406 23.171875 0 21.046875 0 Z M 21.046875 0 "/></g></g></g><path stroke-linecap="round" transform="matrix(-0.533854, 0, 0, -0.533854, 91.583067, 29.224817)" fill="none" stroke-linejoin="miter" d="M 12.997055 12.999163 L 88.801894 12.999163 " stroke="#ffffff" stroke-width="26" stroke-opacity="1" stroke-miterlimit="4"/><path stroke-linecap="round" transform="matrix(0, 0.533854, -0.533854, 0, 92.393696, 15.39856)" fill="none" stroke-linejoin="miter" d="M 13.002203 13.000867 L 46.5656 13.000867 " stroke="#ffffff" stroke-width="26" stroke-opacity="1" stroke-miterlimit="4"/></g></g></svg>