<svg xmlns="http://www.w3.org/2000/svg" xmlns:xlink="http://www.w3.org/1999/xlink" width="2000" zoomAndPan="magnify" viewBox="0 0 1500 1499.999933" height="2000" preserveAspectRatio="xMidYMid meet" version="1.0"><defs><g/><clipPath id="2145b9cd4e"><path d="M 0.519531 0 L 1272.28125 0 L 1272.28125 1500 L 0.519531 1500 Z M 0.519531 0 " clip-rule="nonzero"/></clipPath><clipPath id="c937ebe14d"><path d="M 0.519531 0 L 568 0 L 568 1500 L 0.519531 1500 Z M 0.519531 0 " clip-rule="nonzero"/></clipPath><clipPath id="d133f5ca50"><rect x="0" width="568" y="0" height="1500"/></clipPath><clipPath id="2032e07136"><rect x="0" width="1273" y="0" height="1500"/></clipPath></defs><g transform="matrix(1, 0, 0, 1, 41, 0.000000000000112861)"><g clip-path="url(#2032e07136)"><path stroke-linecap="round" transform="matrix(0, 1.115296, -1.115296, 0, 1241.255363, 753.929219)" fill="none" stroke-linejoin="miter" d="M 83.498407 83.499293 L 565.142397 83.499293 " stroke="#ffffff" stroke-width="167" stroke-opacity="1" stroke-miterlimit="4"/><path stroke-linecap="round" transform="matrix(-1.115296, 0, 0, -1.115296, 1230.45558, 933.090836)" fill="none" stroke-linejoin="miter" d="M 83.500188 83.498877 L 570.933699 83.498877 " stroke="#ffffff" stroke-width="167" stroke-opacity="1" stroke-miterlimit="4"/><g clip-path="url(#2145b9cd4e)"><path stroke-linecap="round" transform="matrix(-0.788634, 0.788634, -0.788634, -0.788634, 1272.23948, 848.084211)" fill="none" stroke-linejoin="miter" d="M 83.500214 83.498025 L 743.38615 83.500501 " stroke="#ffffff" stroke-width="167" stroke-opacity="1" stroke-miterlimit="4"/></g><g clip-path="url(#c937ebe14d)"><g transform="matrix(1, 0, 0, 1, -0.000000000000007105, 0.000000000000112861)"><g clip-path="url(#d133f5ca50)"><g fill="#ffffff" fill-opacity="1"><g transform="translate(0.597132, 1476.630818)"><g><path d="M 282.703125 0 C 255.421875 0 232.476562 -9.296875 213.875 -27.890625 C 195.28125 -46.492188 185.984375 -69.4375 185.984375 -96.71875 L 185.984375 -1355.84375 C 185.984375 -1384.363281 195.28125 -1407.613281 213.875 -1425.59375 C 232.476562 -1443.570312 255.421875 -1452.5625 282.703125 -1452.5625 C 311.222656 -1452.5625 334.472656 -1443.570312 352.453125 -1425.59375 C 370.429688 -1407.613281 379.421875 -1384.363281 379.421875 -1355.84375 L 379.421875 -96.71875 C 379.421875 -69.4375 370.429688 -46.492188 352.453125 -27.890625 C 334.472656 -9.296875 311.222656 0 282.703125 0 Z M 282.703125 0 "/></g></g></g></g></g></g><path stroke-linecap="round" transform="matrix(-1.115296, 0, 0, -1.115296, 1230.45558, 216.129571)" fill="none" stroke-linejoin="miter" d="M 83.500188 83.498583 L 570.933699 83.498583 " stroke="#ffffff" stroke-width="167" stroke-opacity="1" stroke-miterlimit="4"/><path stroke-linecap="round" transform="matrix(0, 1.115296, -1.115296, 0, 1241.249843, 30.506344)" fill="none" stroke-linejoin="miter" d="M 83.499304 83.501349 L 299.434766 83.501349 " stroke="#ffffff" stroke-width="167" stroke-opacity="1" stroke-miterlimit="4"/></g></g></svg>