<svg xmlns="http://www.w3.org/2000/svg" xmlns:xlink="http://www.w3.org/1999/xlink" width="300" zoomAndPan="magnify" viewBox="0 0 224.87999 225" height="300" preserveAspectRatio="xMidYMid meet" version="1.0"><defs><g/><clipPath id="2bd1755b3b"><path d="M 0 0.0585938 L 224.761719 0.0585938 L 224.761719 224.9375 L 0 224.9375 Z M 0 0.0585938 " clip-rule="nonzero"/></clipPath><clipPath id="6beacad8a5"><path d="M 5 0.0585938 L 92 0.0585938 L 92 224.9375 L 5 224.9375 Z M 5 0.0585938 " clip-rule="nonzero"/></clipPath><clipPath id="3b281b317f"><rect x="0" width="87" y="0" height="225"/></clipPath></defs><path stroke-linecap="round" transform="matrix(0, 0.7496, -0.7496, 0, 191.401984, 4.048793)" fill="none" stroke-linejoin="miter" d="M 18.502104 18.498971 L 126.184544 18.498971 " stroke="#ffffff" stroke-width="37" stroke-opacity="1" stroke-miterlimit="4"/><path stroke-linecap="round" transform="matrix(-0.7496, 0, 0, -0.7496, 190.651168, 31.778809)" fill="none" stroke-linejoin="miter" d="M 18.497883 18.501406 L 127.47789 18.501406 " stroke="#ffffff" stroke-width="37" stroke-opacity="1" stroke-miterlimit="4"/><g clip-path="url(#2bd1755b3b)"><path stroke-linecap="round" transform="matrix(-0.530047, 0.530047, -0.530047, -0.530047, 196.850551, 18.174443)" fill="none" stroke-linejoin="miter" d="M 18.501756 18.499232 L 165.945878 18.499232 " stroke="#ffffff" stroke-width="37" stroke-opacity="1" stroke-miterlimit="4"/></g><g clip-path="url(#6beacad8a5)"><g transform="matrix(1, 0, 0, 1, 5, -0.000000000000031655)"><g clip-path="url(#3b281b317f)"><g fill="#ffffff" fill-opacity="1"><g transform="translate(1.236237, 221.436522)"><g><path d="M 42.375 0 C 38.289062 0 34.851562 -1.390625 32.0625 -4.171875 C 29.28125 -6.960938 27.890625 -10.40625 27.890625 -14.5 L 27.890625 -203.265625 C 27.890625 -207.535156 29.28125 -211.019531 32.0625 -213.71875 C 34.851562 -216.414062 38.289062 -217.765625 42.375 -217.765625 C 46.65625 -217.765625 50.140625 -216.414062 52.828125 -213.71875 C 55.523438 -211.019531 56.875 -207.535156 56.875 -203.265625 L 56.875 -14.5 C 56.875 -10.40625 55.523438 -6.960938 52.828125 -4.171875 C 50.140625 -1.390625 46.65625 0 42.375 0 Z M 42.375 0 "/></g></g></g></g></g></g><path stroke-linecap="round" transform="matrix(-0.7496, 0, 0, -0.7496, 191.365631, 220.817196)" fill="none" stroke-linejoin="miter" d="M 18.502586 18.500505 L 128.425805 18.500505 " stroke="#ffffff" stroke-width="37" stroke-opacity="1" stroke-miterlimit="4"/><path stroke-linecap="round" transform="matrix(0, 0.7496, -0.7496, 0, 191.403183, 156.417881)" fill="none" stroke-linejoin="miter" d="M 18.499569 18.500571 L 66.91602 18.500571 " stroke="#ffffff" stroke-width="37" stroke-opacity="1" stroke-miterlimit="4"/></svg>